<svg version="1.0" id="Layer_1" xmlns="http://www.w3.org/2000/svg" x="0" y="0" width="80" height="80" xml:space="preserve"><style>.st0{display:none}.st1{fill:#5b5b5b}.st1,.st2{display:inline}.st3{fill:#5b5b5b}</style><g id="OMELETE" class="st0"><path id="XMLID_579_" class="st1" d="M27.6 33.7c-1.4 0-2.4.6-3.1 1.7-.7-1.1-2-1.7-3.4-1.7s-2.9.6-3.6 1.7v-1.6s0-.1-.1-.1h-4.5s-.1 0-.1.1v8c0-1.9-.4-3.6-1-4.9-.7-1.9-2.5-3.2-5.3-3.2-2.9 0-4.7 1.3-5.3 3.2-.6 1.3-1 3-1 4.9 0 2.3.6 4.3 1.5 5.7.9 1.4 2.5 2.3 4.9 2.3 2.4 0 4-.9 4.9-2.3.9-1.3 1.5-3.4 1.5-5.6v7.9s0 .1.1.1h4.5s.1 0 .1-.1V38.2c0-.7.5-1.2 1.2-1.2s1.2.5 1.2 1.2v11.4s0 .1.1.1h4.5s.1 0 .1-.1V38.2c0-.7.5-1.2 1.2-1.2s1.2.5 1.2 1.2v11.4s0 .1.1.1h4.5s.1 0 .1-.1v-12c-.3-2.2-2.1-3.9-4.3-3.9zM6.4 45.8c-1.3 0-2.4-1.5-2.4-3.5s1.1-4.8 2.4-4.8c1.3 0 2.4 2.7 2.4 4.8 0 2.1-1.1 3.5-2.4 3.5z"/><path id="XMLID_551_" class="st1" d="M36.1 42.6h6.8v-3.2c0-3.1-2.5-5.7-5.7-5.7-3.1 0-5.7 2.5-5.7 5.7V44c0 3.1 2.5 5.7 5.7 5.7 3.1 0 5.7-2.5 5.7-5.7v-.2h-4.4s-.1 0-.1.1v1.2c0 .7-.5 1.2-1.2 1.2s-1.2-.5-1.2-1.2l.1-2.5c-.1 0 0 0 0 0zm-.1-4.4c0-.7.5-1.2 1.2-1.2s1.2.5 1.2 1.2v2.4s0 .1-.1.1H36s-.1 0-.1-.1v-2.4z"/><path id="XMLID_506_" class="st1" d="M75.5 43.9v1.2c0 .7-.5 1.2-1.2 1.2s-1.2-.5-1.2-1.2v-2.4s0-.1.1-.1H80s.1 0 .1-.1v-3.2c0-3.1-2.5-5.7-5.7-5.7H63.7s-.1 0-.1-.1v-3.3s0-.1-.1-.1H59s-.1 0-.1.1v12.2-3.2c0-3.1-2.5-5.7-5.7-5.7-3.1 0-5.7 2.5-5.7 5.7v-9s0-.1-.1-.1H43s-.1 0-.1.1v19.3s0 .1.1.1h4.5s.1 0 .1-.1V44c0 3.1 2.5 5.7 5.7 5.7 3.1 0 5.7-2.5 5.7-5.7v-.2 1c0 2.7 2.2 4.8 4.8 4.8 2.7 0 4.8-2.2 4.8-4.8v-.9c0 3.1 2.5 5.7 5.7 5.7 3.1 0 5.7-2.5 5.7-5.7v-.2l-4.5.2c0-.1 0 0 0 0zM52 38.2c0-.7.5-1.2 1.2-1.2s1.2.5 1.2 1.2v2.4s0 .1-.1.1H52s-.1 0-.1-.1v-2.4zm2.5 5.6s0 .1 0 0l-.1 1.3c0 .7-.5 1.2-1.2 1.2s-1.2-.5-1.2-1.2v-2.4s0-.1.1-.1h6.8v1.2h-4.4zm21-5.6v2.4s0 .1-.1.1h-2.3s-.1 0-.1-.1v-2.4c0-.7.5-1.2 1.2-1.2.8 0 1.3.6 1.3 1.2zm-10.8 5.7l-.1 1.9c0 .3-.3.5-.5.5s-.5-.2-.5-.5V37s0-.1.1-.1h5.5c-.3.7-.5 1.5-.5 2.4v4.5h-4z"/></g><g id="CCXP" class="st0"><path id="XMLID_23_" class="st1" d="M51.7 46.6L41 52.8V40.4l10.7-6.2z"/><path id="XMLID_22_" class="st1" d="M63.6 39.7L52.8 46V33.6l10.8-6.2z"/><path id="XMLID_21_" class="st1" d="M75.4 32.9l-10.7 6.2V26.7l10.7-6.2z"/><path id="XMLID_20_" class="st1" d="M51.7 60.2L41 66.4V54l10.7-6.2z"/><path id="XMLID_19_" class="st1" d="M63.6 53.3l-10.8 6.3V47.2L63.6 41z"/><path id="XMLID_18_" class="st1" d="M75.4 46.5l-10.7 6.2V40.3l10.7-6.2z"/><path id="XMLID_17_" class="st1" d="M51.7 73.8L41 80V67.6l10.7-6.2z"/><path id="XMLID_16_" class="st1" d="M15.3 39L4.6 32.8V20.4l10.7 6.2z"/><path id="XMLID_15_" class="st1" d="M39 52.7l-10.7-6.3V34.1L39 40.3z"/><path id="XMLID_14_" class="st1" d="M27.2 59.4l-10.8-6.2V40.8l10.8 6.3z"/><path id="XMLID_13_" class="st1" d="M15.3 66.2L4.6 60V47.6l10.7 6.2z"/><path id="XMLID_12_" class="st1" d="M39 79.9l-10.7-6.3V61.3L39 67.5z"/><g class="st2"><path id="XMLID_11_" class="st3" d="M29.9 6.1l1.9 1.1 1.7-1 2.3 1.4L32 9.8 25.4 6l10.3-6 6.6 3.8L38.5 6l-2.4-1.3 1.7-1-2-1.1z"/><path class="st3" d="M43.4 4.4L50 8.3l-10.3 6-6.6-3.8 10.3-6.1zm-5.8 6.1l1.9 1.1 5.9-3.4-1.9-1.1-5.9 3.4z"/><path id="XMLID_8_" class="st3" d="M51.2 15.4l-3.5.1.1-2-4.7 2.7-2.4-1.4 10.5-6-.1 4.8 8.2-.1-10.5 6-2.3-1.3z"/><path id="XMLID_7_" class="st3" d="M62.6 15.5l-10.3 6-2.4-1.4 10.3-5.9z"/><path id="XMLID_6_" class="st3" d="M57.9 22.2l1.9 1.1 1.6-.9 2.4 1.3-3.9 2.2-6.6-3.8 10.3-6 6.7 3.9-3.9 2.2-2.3-1.4 1.6-.9-1.9-1.1z"/><path id="XMLID_5_" class="st3" d="M13.9 16.3l3.8 2.2 2.7-1.5 3.2 1.8L18 22 7.8 16.1l15.6-9L33.7 13l-5.6 3.2-3.2-1.8 2.7-1.6-3.9-2.2z"/><path class="st3" d="M35.4 14l10.2 5.9-15.6 9L19.8 23l15.6-9zm-9.6 9.2l3.9 2.2 9.9-5.7-3.9-2.2-9.9 5.7z"/><path id="XMLID_2_" class="st3" d="M39.2 34.2l7.2-4.1-1.7-4-9.7 5.7-3.2-1.9 15.8-9.1 2.9 6.9 4.4-2.5L58 27l-15.6 9.1z"/></g></g><g id="MUNDO_GEEK" class="st0"><path id="XMLID_69_" class="st1" d="M45.2 50.4c-.3 0-.6.3-.6.6 0 .4.3.6.6.6s.6-.3.6-.6c0-.4-.3-.6-.6-.6z"/><path id="XMLID_68_" class="st1" d="M36.8 50.4c-.4 0-.6.3-.6.6s.2.6.6.6c.4 0 .6-.3.6-.6s-.2-.6-.6-.6z"/><path id="XMLID_67_" class="st1" d="M49.8 32.2v-2.6c0-.5-.3-.9-1-.9h-1.1V33h1.1c.7.1 1-.3 1-.8z"/><path class="st1" d="M65.5 38.3C64.9 24.7 53.7 13.9 40 13.9c-4.8 0-9.3 1.3-13.2 3.6-13-3.8-23.2-3.5-26.1 1.7-2.9 5.5 2.9 14.7 14 23.8C16.4 55.4 27.1 65 40 65c3.8 0 7.4-.8 10.6-2.3 14.2 4.7 25.6 4.7 28.6-.9 3-5.4-2.8-14.5-13.7-23.5zm-12.6-8.8c0-1.9 1.7-2.8 3.4-2.8s3.4.9 3.4 2.8v2.8c0 1.9-1.7 2.8-3.4 2.8s-3.4-.9-3.4-2.8v-2.8zm-7.2-2.7h3.1c1.6 0 3.2.8 3.2 2.8v2.8c0 1.9-1.5 2.7-3.2 2.7h-3v-8.3zm-7.9 0h2l2.5 4.4v-4.4h2V35h-2.1l-1.8-3.2v-.1l-.5-.8V35h-2v-8.2zm-11.1 0s0-.1 0 0h2.1V35h-2.1v-3.7l-.9 2.5h-1.4l-1-2.5V35h-2.1v-8.3h2.1l1.7 4 1.6-3.9zM14.5 37.2C9.3 31.6 7 26.4 8.8 23c1.8-3.3 7.3-4.2 14.5-3-4.9 4.3-8.2 10.3-8.8 17.2zm16.1 10c-1.3.5-2.8.7-4.4.7-1.7 0-3.1-.5-4-1.5-.9-1-1.4-2.4-1.4-4.3 0-1.8.5-3.2 1.6-4.3 1-1 2.5-1.5 4.4-1.5.7 0 1.4.1 2 .2.6.1 1.2.3 1.6.5l-.9 2.3c0 .1-.1 0-.1 0-.8-.4-1.7-.6-2.6-.6-.9 0-1.6.3-2.1.9-.5.6-.7 1.4-.7 2.5s.2 1.9.7 2.4c.4.6 1.1.8 1.9.8.5 0 .9 0 1.2-.1v-1.6h-2v-2.4h4.8v6zM30 32.3v-5.5h2.1v5.5c0 1.3 2.3 1.3 2.4 0v-5.5h2.1v5.5c0 3.8-6.6 3.8-6.6 0zm2 4h7.9v2.6h-5v1.8h4.6v2.4h-4.6V45h5v2.7H32V36.3zm.7 15.9H32v-.7h.7v.7zm1.6 0c-.7 0-1.2-.5-1.2-1.2s.5-1.2 1.2-1.2c.4 0 .7.1.9.4l-.4.4c-.1-.2-.3-.3-.5-.3-.3 0-.6.3-.6.6 0 .4.2.6.6.6.2 0 .4-.1.5-.2l.4.4c-.2.3-.4.5-.9.5zm3.8-1.2c0 .7-.5 1.2-1.3 1.2-.7 0-1.2-.5-1.2-1.2s.5-1.2 1.3-1.2c.6 0 1.2.5 1.2 1.2zm4 1.2h-.7v-1.3c0-.3-.1-.5-.4-.5-.2 0-.4.2-.4.5v1.3H40v-1.3c0-.3-.1-.5-.4-.5-.2 0-.4.2-.4.5v1.3h-.7v-2.3h.7v.3c.2-.2.4-.4.7-.4.3 0 .5.1.7.4.2-.2.4-.4.8-.4.5 0 .8.3.8.9v1.5zm1.3 0h-.7v-.7h.7v.7zm3.1-1.2c0 .8-.5 1.2-1.1 1.2-.4 0-.6-.2-.7-.3v.3H44V49h.7v1.2c.2-.2.4-.4.7-.4.5 0 1.1.4 1.1 1.2zm1.9-.5c-.5 0-.7.3-.7.8v.9H47v-2.3h.7v.5c.1-.3.4-.5.7-.5v.6zm.7-11.5h-5v1.8h4.6v2.4h-4.6V45h5v2.7h-7.9V36.3h7.9V39zm4.1 4.7v3.9h-2.9V36.4h2.8v4.2l3.1-4.2h3.6l-4.5 5.5 4.5 5.9h-3.6l-2.9-4.1h-.1zm19.6 14.1c-2 3.8-8.9 4.4-17.7 2.3 5.7-4.2 9.6-10.7 10.4-18.1 6.3 6.1 9.3 12.1 7.3 15.8z"/><path id="XMLID_24_" class="st1" d="M56.3 33.2c.7 0 1.3-.3 1.3-.9v-2.8c0-.6-.7-.9-1.4-.9s-1.3.3-1.3.9v2.8c0 .6.7.9 1.4.9z"/></g><g id="SOCIAL" class="st0"><g class="st2"><path id="XMLID_81_" class="st3" d="M0 59.8c.1-.2.3-.5.4-.7.5-.6 1.3-.5 1.5.3.1.6.2 1.1.3 1.6 0 .3.1.6.2.7.3.3.7.6 1.1.6.5 0 .6-.5.6-1 .1-.9-.1-1.8-.5-2.6-.6-1.4-1.1-2.7-1.5-4.2-.5-1.8.3-3.6 2-4.3 1-.4 2.1-.4 3 .3.9.8 1.1 1.8.9 2.9 0 .2-.1.5-.2.7-.4 1-.6 1.2-1.8.9.1-.6.3-1.3.4-1.9.1-.3.1-.6.1-.8 0-.5 0-.9-.5-1.1-.5-.2-1.1-.1-1.4.4-.3.4-.5 1.1-.4 1.5.2 1.2.6 2.4.9 3.6.3 1 .8 1.9 1.1 2.8.5 1.8-.4 3.3-2.3 3.8-1.6.5-3.2-.4-3.7-2-.1-.2-.2-.3-.2-.4v-1.1z"/><path class="st3" d="M36.8 61c-.3.4-.6.7-.9 1-.2.2-.4.4-.6.5-1.5 1.1-2.3 1.2-3-.7-.4.3-.8.7-1.2 1-1 .8-1.5.7-2-.5-.1-.1-.2-.2-.2-.3-.8.4-1.6 1.1-2.4 1.2-1.1.1-1.2-1-1.7-1.8-.5.5-1.1.9-1.6 1.4-.4.3-.9.6-1.4.4-.6-.2-.6-.8-.7-1.3 0-.2-.1-.4-.1-.6-.8.5-1.5 1-2.2 1.5-.7.5-1.5.7-2.4.4-1.2-.4-1.6-1.4-1.7-2.6v-2.3c-.4-.1-.6.2-.8.6-.4.8-.7 1.7-1.2 2.4-.4.6-.9 1.2-1.5 1.6-1.6 1-3.1.2-3.3-1.7-.3-2.2.3-4.4 1.7-6.2.3-.4.6-.5 1.1-.4.4 0 .8 0 1.1-.2 1.3-.7 2.2-.3 2.4 1.2.1.5 0 1 .1 1.5 0 .1.1.4.2.4.2 0 .4 0 .5-.1.3-.3.5-.7.7-1.1.5-.9 1.2-1.5 2.1-2 1.3-.7 2.8.1 3 1.6.1 1-.1 1.8-.8 2.6-.4.4-.8.6-1.3.3s-.3-.8-.2-1.2l.3-.6c.3-.5.4-1.1 0-1.7-.3.2-.6.4-.8.6-1.1 1.5-1.6 3.2-1.4 5 .1 1.1.9 1.5 2 1.1 1.4-.6 2.4-1.6 3-3 .4-1 .7-2.1 1.1-3.1.1-.3.3-.7.5-1 .3-.4.8-.5 1.2-.2.5.3.4.7.2 1.1-.5 1.4-.9 2.7-1.4 4.1-.2.5-.3 1.1.2 1.3.6.2.9-.3 1.1-.8.3-.6.5-1.3.6-2 .3-1.2.8-2.3 1.7-3.2.3-.3.6-.5.9-.8.9-.6 1.7-.4 2.2.5.1.2.2.4.3.7.2-.3.4-.5.5-.7.3-.3.6-.6 1.1-.4.4.3.5.7.4 1.1L31 59.2c-.2.6-.2 1.2.2 2 .3-.3.7-.5.9-.8.3-.4.5-1 .6-1.5.9-2.6 1.7-5.3 2.6-7.9.1-.3.2-.6.4-.9.2-.5.6-.7 1.1-.5.6.2.6.6.4 1.1-.9 2.7-1.7 5.5-2.6 8.3-.2.5-.2 1.1-.2 1.6 0 .3.2.5.6.3.8-.3 1.1-.6 1.2-1.7.2-2.7 1.1-5.2 2.9-7.2.7-.7 1.4-1.4 2.3-1.8 1.7-.9 3.3 0 3.3 1.9 0 .9-.3 1.9-.6 2.8-.2.6-.7.5-1.2.4-.5-.1-.6-.5-.5-1 .2-.9.5-1.7.7-2.6.1-.3-.1-.7-.1-1.1-.3.1-.8.2-1 .4-2.3 2.5-3.7 5.4-3.7 8.8 0 .3 0 .6.1.8.1.6.4 1 .9 1.2.6.2 1.1 0 1.5-.4.3-.4.7-.8.9-1.2.3-.5.6-1.1.9-1.6.1-.2.4-.6.6-.6.5 0 .6.4.6.9 0 2.2-2.8 4.6-5 4.2-.7-.1-1.3-.5-1.7-1.1.2-.2 0-.5-.3-1zm-7.3-5.7c-1.8.8-3.3 5.3-2.2 6.9 1.7-1.2 3.1-5.5 2.2-6.9zm-18.9 1.6c-.8 1.7-1.5 3.3-.6 5.2 1.3-.8 1.6-2.1 2-3.4 0-.1-.1-.2-.1-.3-.5-.5-.8-.9-1.3-1.5zm1.5.6c.5-1 .5-1.5-.2-2.2-.9.9-.9 1.5.2 2.2zm53.6 3.7c.8-.3 1.3-.9 1.5-1.7.3-.9.5-1.7.8-2.6.4-1.1 1.1-2 2.2-2.6.8-.4 1.5-.6 2.3-.1.8.5 1.2 1.4 1 2.3-.1.7-.6 1.4-.9 2-.1.2-.7.4-.9.3-.2-.2-.5-.6-.4-.9 0-.4.2-.8.4-1.1.3-.6.3-1.1-.2-1.6-.3.3-.6.5-.8.8-1 1.3-1.5 2.8-1.4 4.5 0 1.6 1 2.2 2.4 1.4.7-.4 1.4-1 1.9-1.7 1.2-1.4 2-3 2.5-4.8.2-.7.6-1.4.9-2.1 0-.1.1-.1.2-.2.5-.6 1.3-.9 1.7-.6.6.5.2 1.1 0 1.6-.1.2-.2.5-.4.7-.8.9-.9 1.9-.7 3 .2 1.1.3 2.2.5 3.3.6-.7 1.1-1.2 1.7-1.9 0 .2 0 .3-.1.4-1.1 1.6-2.2 3.2-4.2 3.7-1.2.3-1.9-.2-1.9-1.5.1 0 .2.1.3.1.9.5 1.1.5 1.6-.4.6-1.1.4-2.2.1-3.6-.2.3-.4.5-.5.7-.8 1.1-1.6 2.2-2.5 3.2-.4.5-1 .9-1.5 1.2-1.2.7-2.5.4-3.3-.7-.3-.4-.6-.8-1-1.3-.3.4-.6.8-.9 1.1l-.6.6c-1.3 1-1.9.8-2.2-.8 0-.2-.1-.3-.2-.5-.5.4-.9.8-1.3 1.2-.2.2-.5.4-.8.6-.8.4-1.4.1-1.4-.7 0-.7 0-1.3.2-2 .3-1.3.6-2.6.9-3.8 0-.2 0-.4-.1-.7-.4.3-.8.6-1 1-1 1.3-1.5 2.9-1.8 4.4-.1.6-.3 1.2-.4 1.8-1.1 0-1.6-.6-1.3-1.7.2-1.2.5-2.4.8-3.7.1-.6.2-1.1.3-1.9-2.7 1.9-2.8 4.9-3.7 7.4-1.3-.3-1.5-.6-1.3-1.8.2-1 .4-2.1.6-3.2-.7-.1-1 .2-1.2.6-.4.8-.7 1.6-1.1 2.4-.3.5-.7 1-1.1 1.3-.7.6-1.6 1-2.6.6s-1.3-1.4-1.3-2.3c0-2.1.5-4.1 1.8-5.8.3-.5.7-.6 1.3-.5.3.1.6 0 .9-.2 1.4-.8 2.3-.3 2.5 1.3.1.6.1 1.2.1 1.8.6.1.9-.2 1.1-.6.2-.4.4-.9.6-1.4.2-.5.4-1 1.1-1.1.7 0 .9.4 1.1 1 .4-.4.8-.7 1.2-1.1.9-.8 1.6-.6 1.9.6.1.3.2.6.3 1 .5-.5 1-1 1.4-1.5.4-.4.9-.6 1.5-.4.6.3.7.8.6 1.4-.2 1.1-.5 2.1-.7 3.2-.1.6-.3 1.2-.3 1.8 0 .7.4.9.9.4s.9-1.1 1.2-1.7c.4-1 .7-2 1.1-3 .1-.4.3-.8.6-1.2.3-.5.7-.6 1.3-.4.5.2.4.7.3 1.1-.5 1.3-.9 2.7-1.4 4-.6.6-.7 1.1-.2 1.6zm-18.4.9c1.1-.5 2.2-2.3 2.1-3.4 0-.1-.1-.3-.1-.3-.4-.4-.7-.9-1.2-1.4-.7 1.6-1.3 3.2-.8 5.1zm2-6.9c-.2.5-.5.8-.5 1.2 0 .5.4.8.8 1.1.6-1.1.6-1.3-.3-2.3z"/><path id="XMLID_73_" class="st3" d="M26.5 50.8c-.2 1.1-.6 1.9-1.4 2.5-.6.4-1.3.1-1.2-.7.1-1 .5-1.8 1.3-2.4.2-.1.7-.2.9-.1.3.1.4.5.4.7z"/><path id="XMLID_72_" class="st3" d="M66 52.7c.1-1.1.4-2 1.3-2.5.3-.1.8-.2.9 0 .2.2.3.7.3 1-.2.8-.5 1.7-1.3 2.1-.2.1-.6.2-.8.1-.2-.2-.3-.6-.4-.7z"/></g><defs><filter id="Adobe_OpacityMaskFilter" filterUnits="userSpaceOnUse" x="24.8" y="16.6" width="30.4" height="30.4"><feColorMatrix values="-1 0 0 0 1 0 -1 0 0 1 0 0 -1 0 1 0 0 0 1 0" color-interpolation-filters="sRGB" result="source"/><feFlood result="back" flood-color="#fff" flood-opacity="1"/><feBlend in="source" in2="back"/></filter></defs><mask maskUnits="userSpaceOnUse" x="24.8" y="16.6" width="30.4" height="30.4" id="XMLID_48_" class="st2"><g filter="url(#Adobe_OpacityMaskFilter)"><path id="XMLID_70_" fill="#fff" d="M46.5 34.7v-10l-13-.7v11.4l3.3-.2-1.3 3.1 2.7-.2-1.5 3.8 5.9-6.2-2.7.1.7-.8z"/></g></mask><path id="XMLID_71_" d="M55.2 45.5c0 .8-.7 1.5-1.5 1.5H26.3c-.8 0-1.5-.7-1.5-1.5V18.1c0-.8.7-1.5 1.5-1.5h27.4c.8 0 1.5.7 1.5 1.5v27.4z" display="inline" mask="url(#XMLID_48_)" fill="#5b5b5b"/></g><g id="GAME_XP"><path class="st3" d="M40.8 18.4v58.7l9.7-3.6V42.8l28.7-6.2.8-18.2H40.8zm28.9 12.9l-19.2 3.1v-8.8h19.4l-.2 5.7z"/><path id="XMLID_89_" class="st3" d="M26.3 28l11.6-9.6H23l-4.1 3.4-4.1-3.4H0L11.5 28 1 36.7v5.7l9.7 6.7v-8.2l8.2-6.8 10.6 8.8v30.6l9.7 3.6V38.7z"/><path id="XMLID_88_" class="st3" d="M3.7 16.8h16.7V8.3h-5.8v3.1h2.1v2.3H4.5L6.9 6h13.5V2.9H4L0 16.8h2.8z"/><path id="XMLID_87_" class="st3" d="M44.5 7.7l4.9 4.1 4.9-4.1v9.1H58V2.9h-3.7l-4.9 4.5-4.9-4.5h-3.7v13.9h3.7z"/><path id="XMLID_86_" class="st3" d="M73.1 6h3.8L76 2.9H59.6V6h7.9z"/><path id="XMLID_84_" class="st3" d="M76.3 16.8H80l-.9-3.1H63.3v-2.3h6.5V8.3H59.6v8.5h3.7z"/><path id="XMLID_83_" class="st3" d="M35.5 6h3.7V2.9H22V6h3.7z"/><path id="XMLID_82_" class="st3" d="M25.7 11.4h9.8v5.4h3.7V8.3H22v8.5h3.7z"/></g><g id="BOX" class="st0"><g class="st2"><g id="XMLID_172_"><path id="XMLID_173_" class="st3" d="M65.3 22.2h-8.1v-2.6h-3.5v5.9c-.2-1.6-1.5-3.3-4.2-3.3-3 0-4.2 1.5-4.4 3.9v-6.5h-3.5v6c-.1-1.7-1.4-3.4-4.2-3.4-2.7 0-3.9 1.2-4.3 3.1v-.6c0-1.4-1.3-2.5-2.8-2.5-1.1 0-2.1.6-2.7 1.4-.4-.8-1.4-1.4-2.5-1.4s-2 .5-2.6 1.3v-1.1h-3.3v3c-.2-1.8-1.6-3.2-4.2-3.2-2.1 0-3.5 1-4 2.4-.5 1-.8 2.2-.8 3.7 0 1.7.4 3.2 1.1 4.2.7 1 1.9 1.7 3.7 1.7 2.5 0 4-1.4 4.2-3.2v3.2h3.5v-8c0-.5.6-.8.9-.8.3 0 .9.3.9.8v8H28v-8c0-.5.6-.8.9-.8.3 0 .9.3.9.8v8h3.5v-3c.4 2.1 1.8 3 4.3 3 2.7 0 4-1.8 4.2-4.3v4.3h3.5v-3.8c.2 2.6 1.6 3.8 4.4 3.8 2.6 0 4-1.7 4.2-4.1v.9c0 2.1 1.5 3.1 3.6 3.1 1.9 0 3.6-1.1 3.6-3.1v-.8c.2 2.7 1.6 3.9 4.4 3.9 2.8 0 4.2-2 4.2-4.7h-3.4V31c0 .5-.5.7-.8.7-.3 0-.9-.2-.9-.7v-2.1h5.1V26c-.2-1.8-1.4-3.8-4.4-3.8zm-50.2 9c-1 0-1.8-1.1-1.8-2.6s.8-3.5 1.8-3.5 1.8 2 1.8 3.5c-.1 1.5-.9 2.6-1.8 2.6zm21.4-5.7c0-.3.3-.8.9-.8.4 0 .8.5.8.8v1.4h-1.7v-1.4zm5.2 3.9h-3.4V31c0 .5-.5.7-.8.7-.3 0-.9-.2-.9-.7v-2.1h5.1v.5zm6.9-3.9c0-.3.3-.8.9-.8.4 0 .8.5.8.8v1.4h-1.7v-1.4zm5.1 3.9h-3.4V31c0 .5-.5.7-.8.7-.3 0-.9-.2-.9-.7v-2.1h5.1v.5zm7.2-2.5v2.2h-3v1.7c0 .3-.2.4-.4.4s-.4-.1-.4-.4v-6.2h4c-.1.7-.2 1.5-.2 2.3zm5.1 0h-1.7v-1.4c0-.3.3-.8.9-.8.4 0 .8.5.8.8v1.4z"/></g></g><path class="st1" d="M34.2 52.3V52l-.1-.4-.1-.3-.1-.3-.1-.3-.1-.2-.2-.3-.2-.3-.2-.3-.3-.3-.2-.2-.2-.2-.2-.2-.2-.2-.3-.2-.3-.2H31l-.2-.1-.2-.1-.3-.1-1-.1h-.2l.2-.1.3-.1.5-.3.5-.3.4-.3.4-.4.2-.2.3-.4.4-.7.1-.2.1-.2.1-.3.1-.3v-1.3l-.1-.7-.1-.3v-.2l-.1-.3-.1-.2-.3-.3-.2-.2-.2-.3-.2-.3-.2-.2-.2-.2-.2-.2-.5-.3-.2-.1-.8-.3-.4-.1-.3-.1-.5-.1-.3-.2h-2l-.6.1-1.8.4-.3.1-.3.1-.5.1-.3.1-.2.1-.5.3-.9.4-.2.2-.4.1-.3.3-.2.1-.3.2-.2.2-.2.2-.2.2-.2.2-.2.2-.3.3-.2.3-.2.3-.1.1-.2.2-.1.2-.1.2-.1.3-.2.5-.1.2-.1.3-.1.3-.1.3v1.3l.2.8.2.5.1.3.1.1.2.3.2.2.2.2.2.2.2.2.2.2.2.2.2.2.2.1.3.1h.3l.3-.1.2-.1.2-.2.1-.2.1-.3v-.3l-.2-.2-.3-.4-.2-.2-.1-.2-.2-.2-.1-.4-.1-.3-.1-.3-.2-.6v-.8l.1-.3v-.3l.1-.3.1-.3.1-.2.8-1.1.2-.2.2-.2.2-.2.2-.2.2-.2.2-.1.5-.3.2-.1.3-.2.2-.1.3-.1.4-.1.4-.2.4-.1.6-.2.5-.1h.3l.4-.1 1.1-.1h.6l.3.1.7.2.3.1.3.1.3.2.3.2.3.3.2.3.1.2.1.4.1.6v1.1l-.1.4-.2.4-.1.4-.2.3-.2.3-.3.3-.2.3-.3.2-.3.2-.6.3-.2.2-.3.1-.4.2-.5.2-.6.2-.6.2h-.2l-.1-.1v-1l.1-.6v-.7l.1-.4.1-.3.1-.3.1-.3.4-.9.2-.2.3-.3.2-.3.1-.2-.1-.2-.2-.2-.2-.1-.3-.1h-.5l-.3.2-.2.1h-.4l-.2.2-.3.3-.2.3-.1.2-.1.2-.1.2-.2.4-.1.2-.2.8-.1.3-.1.5v.6l-.1.8v.3l-.1.6v5.6l-.1.3v.2l-.1.4v.6h-.4l-.1.2-.1.1h-.2l-.3-.1-1-.3h-1.9l-.2.1-.3.1-.3.1-.4.1-.2.2-.7.5-.2.2-.3.4-.1.2-.2.2-.1.3-.1.3v.8l.1.3v.3l.1.3.1.3.1.2.2.2.2.2.2.2.2.2.2.1.3.1.2.1.3.1.3.1.3.1h.8l.8-.1.4-.1.3-.1.5-.2.2-.1.2-.1.2-.1.3-.2.3-.3.3-.3.2-.3.2-.3.1-.2.2-.3.2-.1h.2l.2.1.2.1.3.1.6.2.4.1.3.1.3.1h2.9l.6-.2.6-.2.4-.1.3-.1.5-.2.7-.4.2-.2.3-.2.3-.2.3-.2.5-.5.2-.2.1-.2.1-.2.2-.3.2-.3.1-.3.1-.2.1-.3.1-.4.1-.5v-1l-.2-.5zm-13.1 5.1l-.1.2-.1.3-.2.2-.2.2-.2.2-.5.5-.3.1-.4.1h-.9l-.2-.1-.2-.1-.2-.2-.2-.3-.1-.5v-.3l.1-.3.2-.3.2-.2.2-.1.3-.1.3-.1.3-.1h.8l.3.1.6.2.3.1.1.1.1.2v.2zm10.7-3.8v.6l-.1.4-.1.4-.1.3-.2.2-.1.2-.4.3-.2.2-.2.2-.2.1-.2.2-.4.2-.4.1-.3.1-.7.1h-1.3l-.3-.1h-.2l-.4.1h-.6l-.8-.2-.3-.1-.2-.1-.3-.1-.2-.1-.1-.2v-.2l.1-.3.1-1.1.1-.3v-.3l.1-.3.1-.8.1-1v-2l.1-.2.1-.2.2-.1.3-.1h.3l.6-.1h2.9l.3.1.3.1.2.1.2.1.2.1.2.1.7.5.2.2.1.2.3.5.1.2.2.5.2.8v.7zm34.7-8.1l-.3-.3-.4-.2-.3.1-.2.3-.1.3-.1.3-.1.4-.1.4-.1.5-.1.4-.2.3-.1.3-.1.3-.1.3-.2.3-.1.3-.1.3-.2.3-.3.6-.2.3-.6.8-.2.2-.3.3-.2.2-.3.2-.3.1h-.3l-.3-.1-.3-.2-.3-.2-.3-.3-.2-.3-.2-.3-.2-.3-.1-.3-.2-.4-.3-.6-.2-.6-.3-.5-.2-.5-.1-.4.1-.4.3-.6.2-.3.1-.3.3-.6.2-.3.1-.3.2-.3.1-.3.2-.3.1-.2.2-.4.1-.2.2-.4.2-.3.1-.3.5-.9.2-.3.1-.2.2-.4.1-.2.2-.4.1-.3v-.3l-.2-.2-.3-.1h-.6l-.7.3-.3.1-.3.2-.3.2-.2.2-.2.3-.3.6-.2.3-.2.3v.4l-.7 1.2-.2.3-.1.3-.1.3-.5.9-.2.2-.3-.1-.2-.3-.1-.3-.4-.6-.1-.3-.2-.3-.2-.3-.2-.3-.2-.3-.2-.3-.6-.7-.2-.3-.3-.2-.3-.1-.4-.1h-.6l-.3.1H51l-.3.1-.4.3-.3.4-.2.3-.1.3-.2.3-.1.4-.2.5-.1.4-.1.4-.1.4-.1.4-.1.3-.1.4v.6c-1.1-3.8-3.8-7.2-6.9-7.2-4.1 0-7.4 6-7.4 10.8 0 4.3 2.6 7.8 6 8.6.4.1.9.2 1.4.2.5 0 .9-.1 1.4-.2 3.3-.7 5.9-4.1 6-8.2l.1-.3v-.4l.1-.3.1-.4.1-.3.2-.6.1-.4.1-.3.1-.4.4-1.4v-.2l.1-.4.1-.3.1-.4.1-.3.2-.2.3-.1.3.2.2.3.2.3.2.3.4.6.1.3.1.3.2.3.1.3.1.3.3.6.5.9.1.3v.3l-.1.3-.1.2-.2.3-.1.2-.1.3-.2.3-.3.4-.2.3-.2.3-.1.3-.2.3-.2.4-.1.4-.2.3-.2.4-.3.5-.2.3-.5.9-.4.7-.2.4v.4l-.1.3.2.2.4.1h.3l1-.2.3-.1.4-.1.3-.2.2-.3.3-.6.4-.9.2-.3.2-.3.2-.4.2-.3.3-.5.1-.3.5-.9.1-.3.2-.2.3.1.3.4.3.6.3.5.3.4.2.3.3.4.4.4.5.4.6.3.6.2.6.1.6-.1.6-.2.5-.2.6-.4.3-.2.2-.2.4-.5.2-.2.2-.3.4-.5.2-.3.3-.6.1-.3.2-.7.4-1 .2-.5.1-.4.1-.4.1-.3.1-.3.1-.3v-.4l.1-.3.1-.4.1-.4-.1-.6zm-24.8 11c-3.3 0-6-3.1-6-7s2.7-8.7 6-8.7 6 4.8 6 8.7c-.1 3.9-2.7 7-6 7z"/><path id="XMLID_50_" class="st1" d="M40.5 80c-.5 0-1-.1-1.5-.4L6.6 61.5c-.5-.3-1.3-.9-1.4-1.9V22c0-.5-.1-1.5.9-2.2l.1-.1L38.9.4c.1-.1.7-.4 1.6-.4.5 0 1 .1 1.5.4l31.4 18.4.1.1c.5.3 1.3 1 1.4 2v37.6c0 .5 0 1.5-.9 2.1L42 79.7h-.1c-.3.1-.8.3-1.4.3zm-33-19.2l32.1 17.9c.3.2.6.3.9.3.4 0 .7-.1.9-.2l31.9-19.1c.4-.3.4-.7.4-1.2V20.9c-.1-.6-.7-1-1-1.3L41.4 1.3c-.3-.2-.6-.2-.9-.2-.6 0-1.1.3-1.1.3L6.6 20.6c-.4.4-.4.9-.4 1.4v37.5c.1.6.8 1.1 1.1 1.3h.2z"/></g></svg>