<svg xmlns="http://www.w3.org/2000/svg" width="876" height="227"><rect id="backgroundrect" width="100%" height="100%" x="0" y="0" fill="none" stroke="none"/><style/><g class="currentLayer"><g id="svg_1" opacity="1" fill-opacity="1" fill="#5b5b5b"><path d="M326.527 33.7h-290.8c1.6 4.1 2.8 7.8 4.4 11.3 4.7 9.8 11.8 17.4 22 21.5 3.4 1.4 7.2 2.2 10.8 2.3 19.3.3 38.6.3 57.9.2 11.5-.1 20.3 4.8 26.4 14.3 3.6 5.6 6.6 11.4 10.3 17.8h-76.1c2 7.5 5.3 13.9 10.1 19.6 3.8 4.5 8.2 8 13.5 10.6 4.2 2.1 8.6 3.3 13.4 3.2 17.6-.2 35.3-.1 52.9 0 3.1 0 6.2.3 9.3.5 6.7.5 12.3 3.3 16.9 8.1 6.4 6.8 10.7 14.7 14.3 23.5h-25.5c1 1.2 1.5 2 2.1 2.7 10.5 12.1 24 18.6 39.4 21.4 15.5 2.9 30.9 2.3 46.4-.3 1.3-.2 2.1-.5 2.1-2.2-.1-16.3 0-32.5 0-49.2h-44.4c4.3-10.5 9.1-19.9 17.2-27.3 4.6-4.2 10.2-5.8 16.1-5.9 16.5-.3 33.1-.3 49.6-.4.4 0 .9.2 1.5.3V213c0 1.7-.2 2.8-2.1 3.4-34.1 9.9-68.7 13.7-103.7 6.1-23.5-5.1-44-16-58.8-35.5-4.2-5.5-7.5-11.9-10.9-18-1-1.8-1.9-2.4-3.9-2.4-9.6 0-19.2.5-28.7-1.5-14.4-3-26.7-9.2-36.8-20.2-12-13.1-20.7-27.7-24.5-45.2-.2-.8-.9-2-1.6-2.2-21.5-6.5-34.8-22.2-45.1-40.9-9.1-16.7-11.9-34.7-9.3-53.6.4-2.6 1.5-3 3.7-3 24.1.1 48.3 0 72.4 0h168.4c15.7 0 31.4.1 47.2.2 9 .1 16.1 4 21.6 11.1 5.3 6.8 9.1 14.1 12.3 22.4z" id="svg_2" opacity="1"/><path d="M432.027 122.3v-11.9h28.2v112.7h-28.2v-11.4c-.7.4-1 .6-1.2.8-22.1 21.1-58.1 17.7-77.4-10.8-9.4-13.8-11.4-29.2-9.4-45.4 2.1-16.3 9.6-29.6 22.8-39.4 18.7-13.9 44.9-12.5 62.5 3.1.7.6 1.4 1.2 2.7 2.3zm1.5 43.1c-.1-1.2-.3-3.3-.5-5.4-1.7-14-12.2-24.5-26.6-26.5-13.5-1.9-26.4 5.3-31.9 18.1-3.3 7.8-3.8 16-1.8 24.2 2.9 11.8 9.9 20.2 21.9 23.3 11.9 3.1 22.5.1 30.8-9.2 6-6.8 7.9-14.9 8.1-24.5z" id="svg_3" opacity="1"/><path d="M781.627 174.4h-91.1c1.9 11 7.1 19.3 17.1 24.2 10.3 5 28.3 5.8 42.7-8.3 7.8 3.6 15.7 7.3 23.8 11.1-5.9 8.4-13.1 15.1-22.4 19-18.2 7.6-36.9 8.4-54.9.4-21.4-9.5-32.6-26.7-33.7-50.1-1.1-24.4 8.2-43.8 29.7-56.1 25.8-14.7 74.1-9.1 86.4 35.1 2.4 7.8 2.9 16 2.4 24.7zm-28.8-22.1c-2.2-11.7-15.8-20.9-30.6-20.8-14.3.1-28 9.6-29.8 20.8h60.4z" id="svg_4" opacity="1"/><path d="M489.427 110.3h28.6v3.3c0 17.9-.1 35.8.1 53.7 0 5.4.4 10.8 1.3 16.1 2.1 11.4 10 17.4 21.4 16.7 10.5-.6 17.9-8.1 18.7-19.3.4-4.9.6-9.9.6-14.8.1-17.5 0-35.1 0-52.6v-3.1h28.5v2.9c0 16.7.3 33.5-.2 50.2-.2 9.5-.8 19.1-2.6 28.3-3.7 18.5-18.8 31.6-37.5 33.7-8.6 1-17.2.9-25.6-1.3-17.2-4.4-29.6-18.7-31.7-36.9-1-8.3-1.5-16.7-1.6-25.1-.3-16.3-.1-32.5-.1-48.8.1-1 .1-1.9.1-3z" id="svg_5" opacity="1"/><path d="M795.527 206.3c5.8-6.5 11.6-12.8 17.5-19.3 4.3 4.9 9.3 8.7 15.2 11.2 4.1 1.7 8.4 2.7 12.8 1.4 1.5-.4 3.1-1.1 4.4-2.1 4.2-2.9 5-7.7 1.5-11.3-2.7-2.8-6.2-5.1-9.6-7.1-4-2.4-8.5-4-12.4-6.4-5-3.1-10.2-6.2-14.5-10.2-18.5-16.8-12.1-43.6 10.8-52.4 18.3-7 41.8.2 52.1 15.7-5.8 5.8-11.6 11.6-17.2 17.4-3.1-2.2-6.2-4.8-9.6-6.9-4.2-2.6-8.9-3.8-13.9-2.5-3 .8-5.4 2.4-6 5.7-.5 3.1 1.3 5.3 3.8 6.7 5.4 2.9 10.9 5.6 16.2 8.5 5 2.8 10.1 5.5 14.8 8.8 11.1 7.7 15.6 18.7 14 31.9-1.7 13.5-9.6 22.5-22 27.4-16 6.2-40.1 4.9-55.3-13.1-.9-1.2-1.7-2.2-2.6-3.4z" id="svg_6" opacity="1"/><path d="M642.527 223.1h-28V66.5h28v156.6z" id="svg_7" opacity="1"/></g></g></svg>