<svg version="1.2" xmlns="http://www.w3.org/2000/svg" width="2160" height="516"><style>.s0,.s3{fill:#000;stroke:#000}.s0{stroke-linejoin:round;stroke-width:.8}.s3{stroke-width:.6}</style><g id="Camada 1"><g id="&lt;Group&gt;"><g id="&lt;Group&gt;"><path id="&lt;Compound Path&gt;" fill-rule="evenodd" class="s0" d="M113.1 731q-12.6 4.4-31.1 4.4H18.1v-96.5h66.3q16.5 0 28 4.6 16.8 6.7 16.8 21.7 0 12.3-15.8 19.3 20.1 6.4 20.1 23.1 0 16.3-20.4 23.4zm-7.2-78.3q-8.8-3.3-21.9-3.3H30.6V680h53.2q12.7 0 21.5-3.2 11.4-4.2 11.4-12.1 0-8-10.8-12zm2.7 41.4q-10.1-3.5-25.2-3.5H30.6v34.3h53.6q14.1 0 24.1-3.6 12.8-4.4 12.8-13.5 0-9.3-12.5-13.7z"/><path id="&lt;Compound Path&gt;" class="s0" d="M157.3 735.4v-96.5h101.9v10.5h-89.6V680h79.3v10.4h-79.3v34.5h90.6v10.5zm213.7-4q-14.3 5-34.5 5-23 0-37.6-5.1-23.1-8.1-23.1-27.8v-5.4h12.6v4.9q0 22.9 48.3 22.9 15.6 0 26.7-3.2 15.3-4.2 15.3-13.2 0-6.1-5.1-9.2-4.1-2.6-14.1-4.6-5.4-1.1-27.3-4.4-24.9-3.7-33.6-6.8-18.6-6.9-18.6-20.8 0-25.8 52.9-25.8 26.8 0 40.4 7.4 15.1 8.3 15.5 26.5h-12.5q-.7-8.6-4.2-13.2t-10.7-6.9q-9.6-3.3-28.5-3.3-40.3 0-40.3 15.3 0 6.9 10.1 10.6 7.7 2.9 26.5 5.3 35 4.4 46.8 9.5 15.4 6.5 15.4 20.8 0 14.5-20.4 21.5zm92.7-82v86h-12.5v-86h-49.8v-10.5h112.1v10.5zM613 638.9h12.5v96.5H613zm145.3 96.5l-92.8-80.6v80.6H653v-96.5h11.9q16.7 15.1 46.7 40.6 32.9 27.7 46.2 39.5v-80.1h12.5v96.5zm91.5-86v86h-12.5v-86h-49.8v-10.5h112.2v10.5zm67.1 86v-96.5h101.9v10.5h-89.5V680h79.3v10.4h-79.3v34.5h90.5v10.5z"/><path id="&lt;Compound Path&gt;" fill-rule="evenodd" class="s0" d="M1133.4 688.3q15.5 6.7 15.5 21.5v25.6h-12.7v-25.2q0-16.1-34.3-16.1h-50v41.3h-12.5v-96.5h64.2q47.1 0 47.1 26.3 0 16-17.3 23.1zm-29.4-38.9h-52.1v33.9h49q14.5 0 24.5-3.4 12.8-4.7 12.8-14.2 0-16.3-34.2-16.3z"/><path id="&lt;Compound Path&gt;" class="s0" d="M1276.7 735.4l-92.8-80.6v80.6h-12.5v-96.5h11.9q16.7 15.1 46.7 40.6 32.9 27.7 46.1 39.5v-80.1h12.6v96.5z"/><path id="&lt;Compound Path&gt;" fill-rule="evenodd" class="s0" d="M1432.6 735.4l-18.7-29h-68.6l-19.1 29h-14.8l63.8-96.5h10.1l61.6 96.5zm-52.2-81.5l-28.1 41.8h55z"/><path id="&lt;Compound Path&gt;" class="s0" d="M1490.5 649.4v86h-12.6v-86h-49.8v-10.5h112.2v10.5zm69.9-10.5h12.5v96.5h-12.5z"/><path id="&lt;Compound Path&gt;" fill-rule="evenodd" class="s0" d="M1713.7 726q-18.5 10.4-47.1 10.4-28.7 0-47.2-10.4-23.3-12.9-23.3-38.8 0-25.7 23.6-38.2 18.2-9.7 46.9-9.7 28.6 0 46.8 9.7 23.6 12.5 23.6 38.2 0 25.9-23.3 38.8zm-7.2-68q-15-8.1-39.9-8.1-23.7 0-38.6 7.5-19.2 9.5-19.2 29.8 0 19.7 17.8 29.8 15.6 8.9 40 8.9 23.7 0 38.8-8 19.1-10.1 19.1-30.7 0-19.7-18-29.2z"/><path id="&lt;Compound Path&gt;" class="s0" d="M1865.4 735.4l-92.8-80.6v80.6h-12.5v-96.5h11.9q16.7 15.1 46.7 40.6 32.9 27.7 46.1 39.5v-80.1h12.5v96.5z"/><path id="&lt;Compound Path&gt;" fill-rule="evenodd" class="s0" d="M2018.4 735.4l-18.7-29h-68.6l-19 29h-14.8l63.7-96.5h10.1l61.7 96.5zm-52.3-81.5l-28 41.8h54.9z"/><path id="&lt;Compound Path&gt;" class="s0" d="M2047.1 735.4v-96.5h12.6v86h82.2v10.5zM314.2 907.2q-29.3 0-48.3-10-24.6-12.8-24.6-38.9 0-26 23.9-39.1 19.1-10.5 47.6-10.5 21.9 0 37.4 5.9 21.3 7.8 28.3 30.8h-13.1q-4.4-13.3-16.8-19.6-12.8-6.6-35.6-6.6-24.6 0-40.7 9-18.5 10.1-18.5 29.9 0 20.4 19.2 30.3 15.8 8.3 41.2 8.3 19.5 0 34.6-6.7 17.9-7.8 17.9-22.1v-.4h-55.8V857h67.6q1 6.4 1 9.4 0 21.5-23.2 32.4-17.8 8.4-42.1 8.4z"/><path id="&lt;Compound Path&gt;" fill-rule="evenodd" class="s0" d="M507.6 906.2l-18.6-29h-68.6l-19.1 29h-14.8l63.7-96.5h10.2l61.6 96.5zm-52.3-81.5l-28 41.8h54.9z"/><path id="&lt;Compound Path&gt;" class="s0" d="M673.3 906.2v-76.7l-54.8 76.7h-9l-54.9-76.7v76.7h-12.5v-96.5h13l58.8 82.3 59.1-82.3h12.8v96.5zm34.7 0v-96.5h101.9v10.5h-89.5v30.6h79.3v10.4h-79.3v34.5h90.5v10.5zm213.8-4q-14.4 5-34.6 5-22.9 0-37.6-5.1-23-8.1-23-27.8v-5.4h12.5v4.9q0 22.9 48.4 22.9 15.5 0 26.6-3.2 15.4-4.2 15.4-13.2 0-6.1-5.1-9.2-4.2-2.6-14.1-4.6-5.4-1.1-27.4-4.4-24.9-3.7-33.6-6.8-18.6-6.9-18.6-20.8 0-25.8 52.9-25.8 26.8 0 40.5 7.4 15 8.3 15.5 26.5h-12.5q-.8-8.5-4.2-13.2-3.5-4.6-10.8-6.9-9.5-3.2-28.5-3.3-40.2 0-40.2 15.3 0 7 10.1 10.7 7.7 2.8 26.4 5.2 35.1 4.4 46.9 9.6 15.3 6.4 15.3 20.7.1 14.6-20.3 21.5zm141-82v30.6h70.8v10.4h-70.8v45h-12.3v-96.5h94.9v10.5zm99 86v-96.5h101.9v10.5h-89.6v30.6h79.3v10.4h-79.3v34.5h90.6v10.5zm213.7-4q-14.3 5-34.5 5-23 0-37.6-5.1-23.1-8.1-23.1-27.8v-5.4h12.6v4.9q0 22.9 48.3 22.9 15.6 0 26.7-3.2 15.3-4.2 15.3-13.2 0-6.1-5.1-9.2-4.1-2.6-14.1-4.6-5.4-1.1-27.3-4.4-24.9-3.7-33.6-6.8-18.6-6.9-18.6-20.8-.1-25.8 52.9-25.8 26.8 0 40.4 7.4 15.1 8.3 15.5 26.5h-12.5q-.7-8.5-4.2-13.2-3.5-4.6-10.7-6.9-9.6-3.2-28.5-3.3-40.3 0-40.3 15.3 0 7 10.1 10.7 7.7 2.8 26.5 5.2 35 4.4 46.8 9.6 15.4 6.4 15.4 20.7 0 14.6-20.4 21.5zm92.7-82v86h-12.5v-86h-49.8v-10.5H1518v10.5zm67-10.5h12.6v96.5h-12.6zm99.1 96.5h-9.2l-61.5-96.5h13.9l52.4 81.7 50.5-81.7h14.1z"/><path id="&lt;Compound Path&gt;" fill-rule="evenodd" class="s0" d="M1789.4 906.2l-18.6-29h-68.6l-19.1 29h-14.8l63.8-96.5h10.1l61.6 96.5zm-52.2-81.5l-28.1 41.8h55z"/><path id="&lt;Compound Path&gt;" class="s0" d="M1821 906.2v-96.5h12.6v86h82.2v10.5z"/></g><g id="&lt;Group&gt;"><g id="&lt;Group&gt;"><g id="&lt;Group&gt;"><g id="&lt;Group&gt;"><path id="&lt;Compound Path&gt;" fill-rule="evenodd" d="M604.5 303.4c0 30.3-18.6 52.2-55.2 65-21.2 7.4-47.4 11.1-77.8 11.1H308.8V129.1h168.5c27.4 0 51.2 3.9 70.6 11.6 38.3 15.3 46.4 41.7 46.4 61.2 0 18-8.6 33-25.4 44.7 28.9 15.6 35.6 38.7 35.6 56.8zM531.2 327c24.3-8.3 24.3-19.6 24.3-23.3 0-6.5-2.4-16.1-23.5-23.5-15.1-5.3-34.3-8-57.1-8H358.1V335h118.8c21.3 0 39.6-2.7 54.3-8zm13.7-126.5c0-3.4 0-12.3-19.5-19.6h-.1c-12.9-4.8-29.4-7.2-49.1-7.2H358.1v53.9h117.8c19 0 35.1-2.4 48.1-7.2 20.9-7.6 20.9-16.9 20.9-19.9zm505.5-71.4h49.4v250.4h-49.4zm681.7 113.2h156.3c0 68.3-20.8 99.4-61.3 118.6-29.6 13.9-64.9 21-105 21-48.2 0-88.6-8.4-120.1-25-42.5-22.1-64.1-56.4-64.1-101.9 0-44.9 21-79.2 62.3-101.8 31.7-17.6 71.6-26.5 118.5-26.5 35.9 0 67.3 5 93 14.6 27.1 10 47.6 27.4 61.4 51.6h-61.8c-3.5-2.5-7.1-4.9-11.1-7-19-9.7-46.2-14.6-80.9-14.6-37.4 0-68.6 6.8-92.7 20.2-26.5 14.5-39.4 35.2-39.4 63.2 0 28.8 13.4 49.7 40.8 64 23.8 12.4 55.4 18.6 94.1 18.6 29.6 0 56.1-5.1 78.9-15.1 21-9.2 32.9-20.8 36.2-35.4h-105.1z" fill="#000"/></g><g id="&lt;Group&gt;"><path id="&lt;Compound Path&gt;" fill-rule="evenodd" d="M604.5 303.4c0 30.3-18.6 52.2-55.2 65-21.2 7.4-47.4 11.1-77.8 11.1H308.8V129.1h168.5c27.4 0 51.2 3.9 70.6 11.6 38.3 15.3 46.4 41.7 46.4 61.2 0 18-8.6 33-25.4 44.7 28.9 15.6 35.6 38.7 35.6 56.8zM531.2 327c24.3-8.3 24.3-19.6 24.3-23.3 0-6.5-2.4-16.1-23.5-23.5-15.1-5.3-34.3-8-57.1-8H358.1V335h118.8c21.3 0 39.6-2.7 54.3-8zm13.7-126.5c0-3.4 0-12.3-19.5-19.6h-.1c-12.9-4.8-29.4-7.2-49.1-7.2H358.1v53.9h117.8c19 0 35.1-2.4 48.1-7.2 20.9-7.6 20.9-16.9 20.9-19.9zm505.5-71.4h49.4v250.4h-49.4zm681.7 113.2h156.3c0 68.3-20.8 99.4-61.3 118.6-29.6 13.9-64.9 21-105 21-48.2 0-88.6-8.4-120.1-25-42.5-22.1-64.1-56.4-64.1-101.9 0-44.9 21-79.2 62.3-101.8 31.7-17.6 71.6-26.5 118.5-26.5 35.9 0 67.3 5 93 14.6 27.1 10 47.6 27.4 61.4 51.6h-61.8c-3.5-2.5-7.1-4.9-11.1-7-19-9.7-46.2-14.6-80.9-14.6-37.4 0-68.6 6.8-92.7 20.2-26.5 14.5-39.4 35.2-39.4 63.2 0 28.8 13.4 49.7 40.8 64 23.8 12.4 55.4 18.6 94.1 18.6 29.6 0 56.1-5.1 78.9-15.1 21-9.2 32.9-20.8 36.2-35.4h-105.1z" fill="none" stroke="#000" stroke-linejoin="round" stroke-width=".8"/></g></g><g id="&lt;Group&gt;"><path id="&lt;Compound Path&gt;" fill-rule="evenodd" class="s3" d="M783.7 257.7c0 138.6-113.5 252.1-252.1 252.1H343c-138.7 0-252.1-113.5-252.1-252.1C90.9 119 204.3 5.5 343 5.5h188.6c138.6 0 252.1 113.5 252.1 252.2zM343 29.8c-125.6 0-227.9 102.2-227.9 227.9 0 125.6 102.3 227.8 227.9 227.8h188.6c125.6 0 227.9-102.2 227.9-227.8 0-125.7-102.3-227.9-227.9-227.9z"/></g></g><g id="&lt;Group&gt;"><path id="&lt;Compound Path&gt;" fill-rule="evenodd" class="s3" d="M2059.6 257.7c0 138.6-113.5 252.1-252.1 252.1h-188.6c-138.7 0-252.1-113.5-252.1-252.1 0-138.7 113.4-252.2 252.1-252.2h188.6c138.6 0 252.1 113.5 252.1 252.2zM1618.9 29.8C1493.2 29.8 1391 132 1391 257.7c0 125.6 102.2 227.8 227.9 227.8h188.6c125.6 0 227.9-102.2 227.9-227.8 0-125.7-102.3-227.9-227.9-227.9z"/></g><g id="&lt;Group&gt;"><g id="&lt;Group&gt;"><path id="&lt;Compound Path&gt;" fill-rule="evenodd" class="s3" d="M1075.1 510.5c-139.8 0-252.9-113-252.9-252.8 0-139.9 113.1-252.9 252.9-252.9s252.9 113 252.9 252.9c0 139.8-113.1 252.8-252.9 252.8zm228.6-252.8c0-126.5-102.2-228.7-228.6-228.7-126.4 0-228.6 102.2-228.6 228.7 0 126.4 102.2 228.6 228.6 228.6 126.4 0 228.6-102.2 228.6-228.6z"/></g></g></g></g></g></svg>