<?xml version="1.0" encoding="utf-8"?>
<svg version="1.0" id="Layer_1" xmlns="http://www.w3.org/2000/svg" xmlns:xlink="http://www.w3.org/1999/xlink" x="0px" y="0px"
     width="67.7px" height="67.7px" viewBox="0 0 67.7 67.7" style="enable-background:new 0 0 67.7 67.7;" xml:space="preserve">
<style type="text/css">
    .st0{fill:#221F1F;}
    .st1{fill:url(#XMLID_17_);}
    .st2{fill:url(#XMLID_18_);}
    .st3{fill:url(#XMLID_19_);}
    .st4{fill:#F37920;}
    .st5{fill:url(#XMLID_20_);}
    .st6{fill:url(#XMLID_21_);}
</style>
<g id="XMLID_14_">
    <polygon id="XMLID_125_" class="st0" points="3.8,1.2 3.8,51.5 33.8,66.5 63.9,51.5 63.9,1.2  "/>
    <g id="XMLID_110_">
        <linearGradient id="XMLID_17_" gradientUnits="userSpaceOnUse" x1="55.2712" y1="50.5904" x2="55.2712" y2="43.4417">
            <stop  offset="0" style="stop-color:#808080"/>
            <stop  offset="0.1023" style="stop-color:#989898"/>
            <stop  offset="0.2852" style="stop-color:#BDBDBD"/>
            <stop  offset="0.4684" style="stop-color:#DADADA"/>
            <stop  offset="0.6496" style="stop-color:#EEEEEE"/>
            <stop  offset="0.8279" style="stop-color:#FBFBFB"/>
            <stop  offset="1" style="stop-color:#FFFFFF"/>
        </linearGradient>
        <polygon id="XMLID_124_" class="st1" points="58.8,43.4 51.7,47 51.7,50.6 58.8,47        "/>
        <linearGradient id="XMLID_18_" gradientUnits="userSpaceOnUse" x1="51.6967" y1="45.2288" x2="40.0801" y2="33.6122">
            <stop  offset="0" style="stop-color:#808080"/>
            <stop  offset="0.3373" style="stop-color:#B6B6B6"/>
            <stop  offset="0.6282" style="stop-color:#DEDEDE"/>
            <stop  offset="0.8587" style="stop-color:#F6F6F6"/>
            <stop  offset="1" style="stop-color:#FFFFFF"/>
        </linearGradient>
        <polygon id="XMLID_123_" class="st2" points="58.8,25.6 37.4,36.3 37.4,57.7 41,56 41,38.1 58.8,29.1      "/>
        <linearGradient id="XMLID_19_" gradientUnits="userSpaceOnUse" x1="8.8045" y1="13.9532" x2="58.8455" y2="13.9532">
            <stop  offset="0" style="stop-color:#808080"/>
            <stop  offset="6.477726e-02" style="stop-color:#979797"/>
            <stop  offset="0.1689" style="stop-color:#B7B7B7"/>
            <stop  offset="0.2823" style="stop-color:#D1D1D1"/>
            <stop  offset="0.4064" style="stop-color:#E6E6E6"/>
            <stop  offset="0.5468" style="stop-color:#F4F4F4"/>
            <stop  offset="0.717" style="stop-color:#FCFCFC"/>
            <stop  offset="1" style="stop-color:#FFFFFF"/>
        </linearGradient>
        <polygon id="XMLID_122_" class="st3" points="33.8,18.4 8.8,5.9 8.8,9.5 33.8,22 58.8,9.5 58.8,5.9        "/>
        <polygon id="XMLID_121_" class="st4" points="33.8,27.4 8.8,14.8 8.8,18.4 33.8,30.9 58.8,18.4 58.8,14.8      "/>
        <linearGradient id="XMLID_20_" gradientUnits="userSpaceOnUse" x1="10.5917" y1="48.8033" x2="14.166" y2="45.2289">
            <stop  offset="0" style="stop-color:#808080"/>
            <stop  offset="1" style="stop-color:#FFFFFF"/>
        </linearGradient>
        <polygon id="XMLID_120_" class="st5" points="8.8,43.4 16,47 16,50.6 8.8,47      "/>
        <linearGradient id="XMLID_21_" gradientUnits="userSpaceOnUse" x1="15.9532" y1="45.2289" x2="27.5698" y2="33.6122">
            <stop  offset="0" style="stop-color:#808080"/>
            <stop  offset="0.3373" style="stop-color:#B6B6B6"/>
            <stop  offset="0.6282" style="stop-color:#DEDEDE"/>
            <stop  offset="0.8587" style="stop-color:#F6F6F6"/>
            <stop  offset="1" style="stop-color:#FFFFFF"/>
        </linearGradient>
        <polygon id="XMLID_119_" class="st6" points="8.8,25.6 8.8,29.1 26.7,38.1 26.7,56 30.3,57.7 30.3,36.3        "/>
        <polygon id="XMLID_118_" class="st4" points="8.8,34.5 8.8,38.1 19.5,43.4 19.5,52.4 23.1,54.2 23.1,41.7      "/>
        <polygon id="XMLID_117_" class="st4" points="58.8,34.5 58.8,38.1 48.1,43.4 48.1,52.4 44.5,54.2 44.5,41.7        "/>
    </g>
</g>
</svg>
